General
Unique ID                        : 183856540208178272197269954370132818226 (0x8A517B4BD4B143FA9763F3438D48B932)
Complete name                    : D:\\\\Download\\\\The.Notorious.Bettie.Page.2005.HDTV.720p.x264-HDL\\\\The.Notorious.Bettie.Page.2005.HDTV.720p.x264-HDL.mkv
Format                           : Matroska
File size                        : 4.38 GiB
Duration                         : 1h 30mn
Overall bit rate                 : 6 907 Kbps
Encoded date                     : UTC 2007-06-26 19:15:24
Writing application              : mkvmerge v2.0.2 (\\\'You\\\'re My Flame\\\') built on Feb 21 2007 23:40:55
Writing library                  : libebml v0.7.7 + libmatroska v0.8.1

Video
ID                               : 1
Format                           : AVC
Format/Info                      : Advanced Video Codec
Format profile                   : High@L5.1
Format settings, CABAC           : Yes
Format settings, ReFrames        : 11 frames
Codec ID                         : V_MPEG4/ISO/AVC
Duration                         : 1h 30mn
Bit rate                         : 6 520 Kbps
Width                            : 1 280 pixels
Height                           : 720 pixels
Display aspect ratio             : 16:9
Frame rate                       : 23.976 fps
Color space                      : YUV
Chroma subsampling               : 4:2:0
Bit depth                        : 8 bits
Scan type                        : Progressive
Bits/(Pixel*Frame)               : 0.295
Stream size                      : 4.05 GiB (92%)
Writing library                  : x264 core 54 svn-612M
Encoding settings                : cabac=1 / ref=8 / deblock=1:0:0 / analyse=0x3:0x133 / me=hex / subme=6 / brdo=1 / mixed_ref=1 / me_range=16 / chroma_me=1 / trellis=1 / 8x8dct=1 / cqm=2 / deadzone=21,11 / chroma_qp_offset=0 / threads=2 / nr=0 / decimate=1 / mbaff=0 / bframes=3 / b_pyramid=1 / b_adapt=1 / b_bias=0 / direct=1 / wpredb=1 / bime=1 / keyint=250 / keyint_min=25 / scenecut=40(pre) / rc=2pass / bitrate=6520 / ratetol=1.0 / rceq=\\\'blurCplx^(1-qComp)\\\' / qcomp=0.60 / qpmin=10 / qpmax=51 / qpstep=4 / cplxblur=20.0 / qblur=0.5 / ip_ratio=1.40 / pb_ratio=1.30
Language                         : English

Audio
ID                               : 2
Format                           : AC-3
Format/Info                      : Audio Coding 3
Mode extension                   : CM (complete main)
Codec ID                         : A_AC3
Duration                         : 1h 30mn
Bit rate mode                    : Constant
Bit rate                         : 384 Kbps
Channel(s)                       : 6 channels
Channel positions                : Front: L C R, Side: L R, LFE
Sampling rate                    : 48.0 KHz
Bit depth                        : 16 bits
Compression mode                 : Lossy
Stream size                      : 249 MiB (6%)
